<svg xmlns="http://www.w3.org/2000/svg" width="800" height="600" viewBox="0 0 800 600" role="img" aria-label="Illustrated wind night weather landscape">
  <defs>
    <linearGradient id="sky" x2="0" y2="1"><stop stop-color="#1b3851"/><stop offset="1" stop-color="#68717a"/></linearGradient>
    <radialGradient id="glow"><stop stop-color="#b9d0d3" stop-opacity=".42"/><stop offset="1" stop-color="#b9d0d3" stop-opacity="0"/></radialGradient>
    <linearGradient id="shade" x2="0" y2="1"><stop stop-color="#07101b" stop-opacity="0"/><stop offset="1" stop-color="#07101b" stop-opacity=".24"/></linearGradient>
    <pattern id="grain" width="36" height="36" patternUnits="userSpaceOnUse"><circle cx="4" cy="8" r=".8" fill="#fff" opacity=".12"/><circle cx="25" cy="26" r=".7" fill="#07101b" opacity=".08"/></pattern>
  </defs>
  <rect width="800" height="600" fill="url(#sky)"/>
  <g><circle cx="638" cy="117" r="62" fill="url(#glow)"/><path d="M661 65a53 53 0 1 0 50 79 47 47 0 0 1-50-79z" fill="#e2e9d8"/><g fill="#f3ead0" opacity=".86"><circle cx="112" cy="86" r="2"/><circle cx="194" cy="139" r="1.8"/><circle cx="326" cy="73" r="2"/><circle cx="447" cy="122" r="1.6"/><circle cx="536" cy="62" r="1.5"/><circle cx="742" cy="211" r="1.8"/><circle cx="75" cy="220" r="1.4"/></g></g>
  <g fill="none" stroke="#9ac0c1" stroke-width="7" stroke-linecap="round" opacity=".58"><path d="M56 174c142-58 212 52 352 2s204-49 336-5"/><path d="M22 225c116-41 186 45 306 8s230-52 410-6"/><path d="M102 276c104-30 183 40 290 9s179-32 287-1"/></g>
    <g fill="#b0c5bd" opacity=".78"><path d="M585 283q17-19 34-5-20 1-34 5z"/><path d="M650 224q16-19 33-5-20 1-33 5z"/><path d="M173 299q15-17 29-4-17 1-29 4z"/></g>
  <path d="M0 404 105 298l68 65 126-158 104 128 112-96 93 82 108-124 84 114v291H0z" fill="#293d4c" opacity=".76"/>
    <path d="m242 241 57-36 44 53-39-16-27 20zM525 319l93-124 84 114-70-54-30 38z" fill="#d7d9d1" opacity=".58"/>
    <path d="M0 427q139-70 280-14t250-8 270-6v201H0z" fill="#1a3040"/>
    <path d="M0 490q183-73 358-2t442-35v147H0z" fill="#64777b"/><path d="M0 532q140-97 292-17t257-6 251-32v123H0z" fill="#64777b" opacity=".72"/><g fill="none" stroke="#b5bd9a" stroke-width="4" opacity=".8"><path d="M119 561q-14-51 9-90M131 562q5-44 36-69M680 566q-8-57 17-95M694 565q6-39 35-61M274 575q-5-35 16-57"/></g>
  <path d="M0 430q181-76 354-13t446-35" fill="none" stroke="#fff" stroke-opacity=".14" stroke-width="2"/>
  <rect width="800" height="600" fill="url(#shade)"/>
  <rect width="800" height="600" fill="url(#grain)"/>
</svg>