<?xml version="1.0" encoding="utf-8"?>
<!-- Generator: Adobe Illustrator 25.4.1, SVG Export Plug-In . SVG Version: 6.00 Build 0)  -->
<svg version="1.1" id="Layer_1" xmlns="http://www.w3.org/2000/svg" xmlns:xlink="http://www.w3.org/1999/xlink" x="0px" y="0px"
	 width="58.6px" height="58.6px" viewBox="0 0 58.6 58.6" style="enable-background:new 0 0 58.6 58.6;" xml:space="preserve">
<style type="text/css">
	.st0{fill:#FFFFFF;}
	.st1{opacity:0.4;fill:#B3B3B3;enable-background:new    ;}
	.st2{fill:#6D8CAA;}
</style>
<g id="Layer_2_00000145737520604876474150000017195175502369591465_">
	<g id="Layer_1-2">
		<circle class="st0" cx="29.3" cy="29.3" r="29.3"/>
		<path id="path3" class="st1" d="M46.9,19.4c5.5,9.6,2.2,21.8-7.3,27.3c-0.2,0.1-0.5,0.3-0.7,0.4c-9.6,5.5-21.8,2.2-27.3-7.3
			S9.3,18,18.9,12.5l0.7-0.4C29.1,6.5,41.4,9.8,46.9,19.4L46.9,19.4L46.9,19.4z"/>
		<path id="path5" class="st2" d="M19.6,12.1c1.9-1.1,3.9-1.9,6-2.3C18.3,18,19.1,30.6,27.4,38c4.7,4.1,11.1,5.9,17.2,4.6
			c-7.4,8.2-20,8.9-28.2,1.6s-8.9-20-1.6-28.2C16.1,14.4,17.7,13,19.6,12.1L19.6,12.1z"/>
	</g>
</g>
</svg>
