<?xml version="1.0" encoding="utf-8"?>
<!-- Generator: Adobe Illustrator 27.9.0, SVG Export Plug-In . SVG Version: 6.00 Build 0)  -->
<svg version="1.1" id="Layer_2_00000021824579452664993670000009558044694582256574_"
	 xmlns="http://www.w3.org/2000/svg" xmlns:xlink="http://www.w3.org/1999/xlink" x="0px" y="0px" width="426px" height="426px"
	 viewBox="0 0 426 426" style="enable-background:new 0 0 426 426;" xml:space="preserve">
<style type="text/css">
	.st0{fill:#FFFFFF;}
</style>
<g id="Layer_1-2">
	<path class="st0" d="M213,0C95.4,0,0,95.4,0,213s95.4,213,213,213s213-95.4,213-213S330.6,0,213,0z M195.5,246.4
		c-2.6,38-33.8,65.8-71.8,63.8c-35.3-1.8-64.1-32.8-62.3-68.7c3-62.1,30.6-110.4,83.7-144.7c6.3,9.6,12.2,18.6,18.5,28.3
		c-21.4,12.5-37.9,28.8-50,50.9c7.6,0,14.4-0.5,21.1,0.1C170.3,179.2,197.8,211.2,195.5,246.4z M357.1,250.5
		c-4,35.2-32.5,60-66.8,59.9c-34.2-0.1-63.7-25.2-66.1-60.4c-2.2-32.1-2.2-64.7,0.3-96.8c2.8-35.6,34.6-60.4,70.1-58.6
		c34.4,1.8,62.2,30.4,63.3,65.7c0.4,14.2,0.1,28.4,0.1,42.6h-0.5C357.4,218.8,358.9,234.8,357.1,250.5L357.1,250.5z"/>
	<path class="st0" d="M324.5,203.2c0,12.8,0.1,25.6,0,38.4c-0.3,20.1-14.7,35.1-33.6,35.3c-19,0.2-33.9-14.5-34.2-34.6
		c-0.4-26.4-0.4-52.9,0-79.4c0.2-20,15.1-34.9,34-34.9c18.9,0,33.5,15.1,33.8,35.1C324.6,176.4,324.5,189.8,324.5,203.2z"/>
	<path class="st0" d="M162.1,243.2c-0.2,18.6-15.7,33.8-34.3,33.7c-18.2-0.2-33.5-15.5-33.5-33.6c0.1-18.9,15.2-34.1,33.9-34.1
		C146.9,209.2,162.3,224.7,162.1,243.2z"/>
</g>
</svg>
