<?xml version="1.0" encoding="utf-8"?>
<!-- Generator: Adobe Illustrator 28.4.0, SVG Export Plug-In . SVG Version: 6.00 Build 0)  -->
<svg version="1.0" id="Layer_2_00000117668738203135925550000009728363686591982504_"
	 xmlns="http://www.w3.org/2000/svg" xmlns:xlink="http://www.w3.org/1999/xlink" x="0px" y="0px" width="501.6px" height="519.8px"
	 viewBox="0 0 501.6 519.8" style="enable-background:new 0 0 501.6 519.8;" xml:space="preserve">
<g id="Layer_1-2">
	<path d="M201.9,519.8c-2.5-1.8-5.6-1.5-8.5-2.2c-36.8-8.9-63.6-41-65.4-78.8c-0.2-3.7-1.4-4.2-4.7-4.2c-28.2,0.1-56.3,0.1-84.4,0
		c-20-0.1-35.2-12.4-38.4-31.6c-2.2-13.3,2-24.8,12.2-33.7c19.4-17,34.1-37.2,42.8-61.6c5.7-15.8,8.4-32.1,8.4-48.9v-57.5
		c0-72.7,49.1-132.9,120.3-147.8c19.8-4.1,39.7-3.7,59.5,0.4c3.4,0.7,3,2,2,4.4c-8.4,20-12.2,40.8-11,62.4
		c3.1,53.7,28.1,94.4,73.7,122.5c15.5,9.5,32.4,15.3,50.3,18.4c3.2,0.5,3.9,1.6,4.1,4.7c2.2,39.4,17.7,72.6,46.9,99.3
		c7.7,7,14.3,14.4,16,25.1c3.7,23.9-13.3,43.8-37.9,44c-27.1,0.2-54.3,0-81.4,0s-8,2.6-8.4,7.8c-3.1,35-27.7,64.6-61.4,74.2
		c-4.2,1.2-8.5,2.2-12.8,3.2L201.9,519.8L201.9,519.8z"/>
	<circle cx="387.3" cy="114.2" r="114.2"/>
</g>
</svg>
