<?xml version="1.0" encoding="UTF-8"?>
<svg id="Layer_2" data-name="Layer 2" xmlns="http://www.w3.org/2000/svg" version="1.1" viewBox="0 0 287.5 288">
  <defs>
    <style>
      .cls-1 {
        fill: #fff;
        stroke-width: 0px;
      }
    </style>
  </defs>
  <g id="Layer_1-2" data-name="Layer 1-2">
    <path class="cls-1" d="M34,50.4c-3.4-3.3-6.7-6.3-9.9-9.5-5.2-5.3-5.3-12.5-.4-17.4,4.9-4.9,12.1-4.7,17.4.5,37,37,73.9,74.1,110.9,111.1,5.1,5.1,5.2,12.7.3,17.4s-12.2,4.5-17.4-.7c-6.7-6.7-13.4-13.4-20.1-20.2-5.4,9.5-2.8,24.4,5.7,33.6,9.5,10.3,24.4,13.3,37,7.3,12.4-5.8,19.9-19.3,18.2-32.8-2-15.7-12.2-24.9-31.9-28.5v-43c22.2-5.3,57,16.5,69.6,43.6,15.3,33,5.3,72.6-23.9,93.9-29.7,21.8-69.9,19.6-97.1-5.3-26.5-24.3-34-66.9-10.6-100.7-5.7-5.7-11.3-11.3-16.9-16.9-21.2,24.3-30.4,70.3-8.5,109.5,22.9,40.9,70.6,60.5,115.4,47.3,45.3-13.3,74.6-56.1,71.3-104.3-.9-12.4-4.3-24.3-9.8-35.6-5.5-11.2-12.8-21.1-22-29.6-9.2-8.5-19.6-15-31.2-19.6-11.6-4.6-23.6-6.8-36.3-6.9V.1c44.2-1.9,106.4,24.4,132.7,89,26.3,64.7,3.3,137.7-54.5,175.5-57.4,37.5-132.9,29.1-181.4-20.3C-7.8,194.9-16.5,110.9,34,50.4Z"/>
  </g>
</svg>