<?xml version="1.0" encoding="UTF-8"?><svg id="Layer_2" xmlns="http://www.w3.org/2000/svg" viewBox="0 0 383.4 384"><defs><style>.cls-1,.cls-2{stroke-width:0px;}.cls-2{fill:#fff;}</style></defs><g id="Layer_1-2"><path class="cls-2" d="M209.5,191.86c0-25.24,0-50.49,0-75.73,0-10.87.11-21.75-.03-32.62-.17-13.24-12.45-21.84-24.31-17.17-7.35,2.89-11.34,9.36-11.34,18.5,0,71.36,0,142.71,0,214.07,0,1-.02,2,.07,3,1.12,12.63,12.46,20.09,24.11,15.89,7.47-2.69,11.5-9.18,11.5-18.72.02-35.74,0-71.48,0-107.22ZM289.8,191.56c0,16.99,0,33.98,0,50.98,0,19.24-.09,38.48.03,57.72.08,13.5,11.69,21.9,23.97,17.58,7.47-2.63,11.57-9.11,11.57-18.66.02-71.59.01-143.18,0-214.77,0-1.62-.15-3.25-.42-4.84-1.34-7.92-8.39-14.07-16.41-14.38-10.78-.41-18.72,7.47-18.73,18.8-.04,35.86-.01,71.72-.02,107.57ZM267.33,192.14h-.02c0-14.99.14-29.98-.05-44.96-.12-9.61-8.19-17.06-17.82-16.98-9.48.09-17.11,7.47-17.43,16.99-.13,3.87-.05,7.74-.05,11.61,0,25.48-.05,50.96.02,76.44.04,11.9,8.2,19.49,19.52,18.44,9.29-.86,15.71-7.88,15.79-17.7.13-14.61.03-29.23.03-43.84ZM347.94,192.08c0,4.12-.19,8.25.04,12.36.57,10.12,7.86,16.94,17.8,16.85,9.81-.09,17.18-7.21,17.47-17.28.23-8.11.23-16.24,0-24.35-.27-9.47-8.12-16.89-17.52-16.95-9.52-.07-17.23,7.07-17.74,16.64-.23,4.23-.04,8.49-.03,12.74Z"/><path class="cls-1" d="M130.26,384c-7.08-2.27-12.4-6.34-13.86-14.08-.43-2.31-.42-4.72-.42-7.09-.02-113.48.07-226.96-.15-340.44C115.81,11.21,119.5,3.62,130.26,0,132.51,0,134.76,0,137,0c1.01.43,2.02.86,3.03,1.29,6.97,2.96,10.76,8.2,11.27,15.78.07,1,.04,2,.04,3,0,114.53,0,229.05,0,343.58,0,11.42-3.35,16.17-14.08,20.09-.1.04-.17.17-.26.27h-6.74Z"/><path class="cls-1" d="M0,177c2.16-3.42,3.74-7.45,6.6-10.12,5.15-4.8,11.61-5.54,18.12-2.71,6.48,2.81,10.31,7.92,10.58,15.04.31,8.22.3,16.47.05,24.7-.29,9.41-6.35,16.14-15.03,17.27-9.23,1.2-16.74-3.74-19.64-12.9-.14-.45-.45-.85-.68-1.27,0-10,0-20,0-30Z"/><path class="cls-1" d="M209.5,191.86c0,35.74,0,71.48,0,107.22,0,9.54-4.03,16.03-11.5,18.72-11.65,4.2-22.98-3.27-24.11-15.89-.09-.99-.07-2-.07-3,0-71.36,0-142.71,0-214.07,0-9.14,4-15.6,11.34-18.5,11.86-4.67,24.14,3.92,24.31,17.17.14,10.87.03,21.74.03,32.62,0,25.24,0,50.49,0,75.73Z"/><path class="cls-1" d="M289.8,191.56c0-35.86-.02-71.72.02-107.57.01-11.33,7.95-19.21,18.73-18.8,8.02.31,15.07,6.45,16.41,14.38.27,1.59.42,3.23.42,4.84.02,71.59.03,143.18,0,214.77,0,9.54-4.11,16.03-11.57,18.66-12.29,4.32-23.89-4.08-23.97-17.58-.12-19.24-.03-38.48-.03-57.72,0-16.99,0-33.98,0-50.98Z"/><path class="cls-1" d="M267.33,192.14c0,14.61.09,29.23-.03,43.84-.09,9.82-6.51,16.84-15.79,17.7-11.32,1.05-19.48-6.54-19.52-18.44-.08-25.48-.03-50.96-.02-76.44,0-3.87-.08-7.75.05-11.61.32-9.52,7.95-16.9,17.43-16.99,9.63-.09,17.7,7.37,17.82,16.98.19,14.99.05,29.98.05,44.96h.02Z"/><path class="cls-1" d="M347.93,192.08c0-4.25-.19-8.5.03-12.74.51-9.57,8.23-16.7,17.74-16.64,9.41.06,17.26,7.48,17.52,16.95.23,8.11.23,16.24,0,24.35-.28,10.06-7.66,17.19-17.47,17.28-9.93.09-17.23-6.73-17.8-16.85-.23-4.11-.04-8.24-.04-12.36Z"/><path class="cls-1" d="M93.5,192.01c0,25.11.04,50.23-.02,75.34-.02,10.49-5.84,17.48-15.5,18.91-9.35,1.38-18.12-5.01-19.62-14.36-.28-1.72-.44-3.48-.44-5.22-.02-49.85-.03-99.71,0-149.56,0-9.6,4.88-16.58,12.95-18.82,11.72-3.25,22.56,5.29,22.6,17.99.08,25.24.02,50.48.02,75.72Z"/></g></svg>